HIERARCHY
ROOT Hips
{
  OFFSET 52.5018 86.4694 24.3543
  CHANNELS 6 Xposition Yposition Zposition Zrotation Xrotation Yrotation
  JOINT spine
  {
    OFFSET 0 6.84637 0.3937
    CHANNELS 3 Zrotation Xrotation Yrotation
    JOINT spine1
    {
      OFFSET 0 9.49621 0
      CHANNELS 3 Zrotation Xrotation Yrotation
      JOINT spine2
      {
        OFFSET 0 9.09909 0
        CHANNELS 3 Zrotation Xrotation Yrotation
        JOINT Neck
        {
          OFFSET 0 23.3612 1.11378
          CHANNELS 3 Zrotation Xrotation Yrotation
          JOINT Head
          {
            OFFSET 0 7.05802 0
            CHANNELS 3 Zrotation Xrotation Yrotation
            End Site
            {
              OFFSET 0 17.0844 -5.63419
            }
          }
        }
        JOINT RightShoulder
        {
          OFFSET -3.83136 9.82631 -0.533491
          CHANNELS 3 Zrotation Xrotation Yrotation
          JOINT RightArm
          {
            OFFSET 0 12.8881 0
            CHANNELS 3 Zrotation Xrotation Yrotation
            JOINT RightArmRoll
            {
              OFFSET 0 6.50617 0
              CHANNELS 3 Zrotation Xrotation Yrotation
              JOINT RightForeArm
              {
                OFFSET 0 18.9501 0
                CHANNELS 3 Zrotation Xrotation Yrotation
                JOINT RightForeArmRoll
                {
                  OFFSET 0 7.30093 0
                  CHANNELS 3 Zrotation Xrotation Yrotation
                  JOINT RightHand
                  {
                    OFFSET 0 14.6514 0
                    CHANNELS 3 Zrotation Xrotation Yrotation
                    End Site
                    {
                      OFFSET 0 0 0
                    }
                  }
                }
              }
            }
          }
        }
        JOINT LeftShoulder
        {
          OFFSET 3.83136 9.82631 -0.533491
          CHANNELS 3 Zrotation Xrotation Yrotation
          JOINT LeftArm
          {
            OFFSET 0 12.8881 0
            CHANNELS 3 Zrotation Xrotation Yrotation
            JOINT LeftArmRoll
            {
              OFFSET 0 6.50617 0
              CHANNELS 3 Zrotation Xrotation Yrotation
              JOINT LeftForeArm
              {
                OFFSET 0 18.9501 0
                CHANNELS 3 Zrotation Xrotation Yrotation
                JOINT LeftForeArmRoll
                {
                  OFFSET 0 7.30093 0
                  CHANNELS 3 Zrotation Xrotation Yrotation
                  JOINT LeftHand
                  {
                    OFFSET 0 14.6514 0
                    CHANNELS 3 Zrotation Xrotation Yrotation
                    End Site
                    {
                      OFFSET 0 0 0
                    }
                  }
                }
              }
            }
          }
        }
      }
    }
  }
  JOINT RightUpLeg
  {
    OFFSET -6.06837 -1.11278 -0.933477
    CHANNELS 3 Zrotation Xrotation Yrotation
    JOINT RightUpLegRoll
    {
      OFFSET 0 17.1796 0
      CHANNELS 3 Zrotation Xrotation Yrotation
      JOINT RightLeg
      {
        OFFSET 0 -21.2743 0
        CHANNELS 3 Zrotation Xrotation Yrotation
        JOINT RightLegRoll
        {
          OFFSET 0 21.3439 0
          CHANNELS 3 Zrotation Xrotation Yrotation
          JOINT RightFoot
          {
            OFFSET 0 17.7652 0
            CHANNELS 3 Zrotation Xrotation Yrotation
            JOINT RightToeBase
            {
              OFFSET 0 14.8508 0
              CHANNELS 3 Zrotation Xrotation Yrotation
              End Site
              {
                OFFSET 0.0062947 7.19214 -0.829005
              }
            }
          }
        }
      }
    }
  }
  JOINT LeftUpLeg
  {
    OFFSET 6.06837 -1.11278 -0.933477
    CHANNELS 3 Zrotation Xrotation Yrotation
    JOINT LeftUpLegRoll
    {
      OFFSET 0 17.1797 0
      CHANNELS 3 Zrotation Xrotation Yrotation
      JOINT LeftLeg
      {
        OFFSET 0 21.2742 0
        CHANNELS 3 Zrotation Xrotation Yrotation
        JOINT LeftLegRoll
        {
          OFFSET 0 21.5412 0
          CHANNELS 3 Zrotation Xrotation Yrotation
          JOINT LeftFoot
          {
            OFFSET 0 17.5679 0
            CHANNELS 3 Zrotation Xrotation Yrotation
            JOINT LeftToeBase
            {
              OFFSET 0 14.8508 0
              CHANNELS 3 Zrotation Xrotation Yrotation
              End Site
              {
                OFFSET -0.0282102 7.19214 -0.829004
              }
            }
          }
        }
      }
    }
  }
}
MOTION
Frames: 9
Frame Time: 0.00208333
49.7086 86.5632 9.62365 1.4529 -0.699683 1.77244 1.18752 -1.70294 1.05269 2.39589 0.61697 1.98584 2.3734 2.26081 1.94659 -15.9304 6.67392 -3.2725 13.303 8.78327 -7.13586 53.2797 -7.73051 -4.60231 101.318 18.9316 23.8594 1.19325e-006 -2.23847e-006 -3.28202e-006 12.4327 4.73224 -1.04096 -5.97755e-006 -3.32188e-006 -3.00974 8.02888 -4.95146 0.697692 -72.3406 -6.86376 4.76029 -96.4626 23.9754 -28.398 -3.68304e-006 -7.6833e-006 1.31604e-005 -12.3954 8.55128 0.608039 3.55972e-005 2.46331e-006 3.00715 -8.02887 -4.95142 -0.697685 178.007 15.8315 -1.5303 -180 -1.52557e-005 178.848 176.652 25.5219 -179.845 5.17239e-006 1.25267e-006 0.674776 -24.2189 72.1237 23.9478 8.12522 25.2333 -3.48293 -178.435 11.9189 0.917355 4.54188e-006 -4.6773e-006 -0.933646 -1.20011 -24.0169 0.692683 3.39869e-006 -3.05989e-006 -0.493315 22.3767 74.4318 -26.422 -8.12706 25.2332 3.48371 
49.7259 86.5543 9.59751 1.45556 -0.685424 1.774 1.18754 -1.70307 1.05336 2.39595 0.616725 1.98724 2.37345 2.26056 1.94798 -15.9387 6.65887 -3.27349 13.3082 8.78692 -7.13732 53.2801 -7.72541 -4.59875 101.343 18.9632 23.8363 1.19325e-006 -2.23847e-006 -3.28202e-006 12.4393 4.7078 -1.03728 -5.97755e-006 -3.32188e-006 -3.00974 8.02888 -4.95146 0.697692 -72.3439 -6.86619 4.76158 -96.4738 23.9854 -28.3958 -3.68304e-006 -7.6833e-006 1.31604e-005 -12.3936 8.53545 0.605496 3.55972e-005 2.46331e-006 3.00715 -8.02887 -4.95142 -0.697685 178.001 15.8485 -1.52682 -180 -1.52557e-005 178.849 176.648 25.5207 -179.843 5.17239e-006 1.25267e-006 0.674848 -24.2163 72.12 23.9432 8.12522 25.2333 -3.48293 -178.441 11.9302 0.921131 4.54188e-006 -4.6773e-006 -0.933629 -1.20297 -24.013 0.691319 3.39869e-006 -3.05989e-006 -0.493315 22.3792 74.4309 -26.4203 -8.12706 25.2332 3.48371 
49.7211 86.5495 9.59888 1.45816 -0.671033 1.77567 1.18761 -1.70326 1.05395 2.39608 0.616365 1.9885 2.37356 2.2602 1.94924 -15.9475 6.64341 -3.2743 13.3138 8.79093 -7.13872 53.2799 -7.72016 -4.59507 101.369 18.9952 23.813 1.19325e-006 -2.23847e-006 -3.28202e-006 12.446 4.68384 -1.03371 -5.97755e-006 -3.32188e-006 -3.00974 8.02888 -4.95146 0.697692 -72.3477 -6.8689 4.763 -96.4847 23.996 -28.3929 -3.68304e-006 -7.6833e-006 1.31604e-005 -12.3922 8.52045 0.603119 3.55972e-005 2.46331e-006 3.00715 -8.02887 -4.95142 -0.697685 177.997 15.866 -1.52605 -180 -1.52557e-005 178.85 176.647 25.5199 -179.842 5.17239e-006 1.25267e-006 0.675125 -24.2122 72.1163 23.9384 8.12522 25.2333 -3.48293 -178.446 11.9419 0.924711 4.54188e-006 -4.6773e-006 -0.93359 -1.20601 -24.0094 0.689878 3.39869e-006 -3.05989e-006 -0.493315 22.3819 74.4301 -26.4188 -8.12706 25.2332 3.48371 
49.7015 86.5619 9.64475 1.46073 -0.656549 1.77741 1.18772 -1.70348 1.05447 2.39626 0.615924 1.98966 2.37372 2.25976 1.95039 -15.9567 6.62766 -3.27498 13.3196 8.79519 -7.14006 53.2794 -7.7148 -4.59131 101.396 19.0273 23.7895 1.19325e-006 -2.23847e-006 -3.28202e-006 12.4526 4.66023 -1.03022 -5.97755e-006 -3.32188e-006 -3.00974 8.02888 -4.95146 0.697692 -72.3518 -6.87181 4.76453 -96.4954 24.007 -28.3895 -3.68304e-006 -7.6833e-006 1.31604e-005 -12.3911 8.50601 0.600858 3.55972e-005 2.46331e-006 3.00715 -8.02887 -4.95142 -0.697685 177.994 15.884 -1.5272 -180 -1.52557e-005 178.85 176.646 25.5194 -179.842 5.17239e-006 1.25267e-006 0.675544 -24.207 72.1125 23.9333 8.12522 25.2333 -3.48293 -178.451 11.9537 0.928152 4.54188e-006 -4.6773e-006 -0.933535 -1.20917 -24.0059 0.688384 3.39869e-006 -3.05989e-006 -0.493315 22.3849 74.4295 -26.4175 -8.12706 25.2332 3.48371 
49.7101 86.5559 9.63838 1.46326 -0.642012 1.7792 1.18784 -1.70373 1.05496 2.39647 0.615437 1.99075 2.3739 2.25927 1.95148 -15.9662 6.61175 -3.27557 13.3255 8.79959 -7.14137 53.2786 -7.70938 -4.58749 101.423 19.0596 23.7658 1.19325e-006 -2.23847e-006 -3.28202e-006 12.4592 4.63681 -1.02678 -5.97755e-006 -3.32188e-006 -3.00974 8.02888 -4.95146 0.697692 -72.3561 -6.87482 4.76612 -96.506 24.0182 -28.3858 -3.68304e-006 -7.6833e-006 1.31604e-005 -12.3902 8.49192 0.598664 3.55972e-005 2.46331e-006 3.00715 -8.02887 -4.95142 -0.697685 177.991 15.9022 -1.52945 -180 -1.52557e-005 178.851 176.647 25.519 -179.842 5.17239e-006 1.25267e-006 0.676046 -24.2012 72.1087 23.9282 8.12522 25.2333 -3.48293 -178.456 11.9656 0.931514 4.54188e-006 -4.6773e-006 -0.933472 -1.21241 -24.0026 0.686859 3.39869e-006 -3.05989e-006 -0.493315 22.388 74.4289 -26.4161 -8.12706 25.2332 3.48371 
49.7236 86.5548 9.61123 1.46579 -0.62746 1.781 1.18797 -1.70398 1.05543 2.39668 0.614936 1.99184 2.37409 2.25877 1.95255 -15.9756 6.59579 -3.27615 13.3314 8.80404 -7.14267 53.2778 -7.70395 -4.58367 101.45 19.092 23.7422 1.19325e-006 -2.23847e-006 -3.28202e-006 12.4658 4.61345 -1.02335 -5.97755e-006 -3.32188e-006 -3.00974 8.02888 -4.95146 0.697692 -72.3604 -6.87786 4.76772 -96.5165 24.0294 -28.3821 -3.68304e-006 -7.6833e-006 1.31604e-005 -12.3893 8.47791 0.596488 3.55972e-005 2.46331e-006 3.00715 -8.02887 -4.95142 -0.697685 177.989 15.9205 -1.532 -180 -1.52557e-005 178.851 176.648 25.5186 -179.842 5.17239e-006 1.25267e-006 0.676571 -24.1952 72.1049 23.923 8.12522 25.2333 -3.48293 -178.461 11.9776 0.934854 4.54188e-006 -4.6773e-006 -0.933407 -1.21567 -23.9992 0.685325 3.39869e-006 -3.05989e-006 -0.493315 22.3911 74.4282 -26.4148 -8.12706 25.2332 3.48371 
49.7211 86.5529 9.61881 1.46833 -0.612933 1.78278 1.18809 -1.70423 1.05593 2.39688 0.614457 1.99294 2.37427 2.25829 1.95365 -15.985 6.5799 -3.27677 13.3373 8.80842 -7.14399 53.2771 -7.69855 -4.57986 101.477 19.1243 23.7185 1.19325e-006 -2.23847e-006 -3.28202e-006 12.4724 4.59 -1.0199 -5.97755e-006 -3.32188e-006 -3.00974 8.02888 -4.95146 0.697692 -72.3646 -6.88085 4.7693 -96.527 24.0405 -28.3785 -3.68304e-006 -7.6833e-006 1.31604e-005 -12.3884 8.46375 0.594282 3.55972e-005 2.46331e-006 3.00715 -8.02887 -4.95142 -0.697685 177.986 15.9387 -1.53405 -180 -1.52557e-005 178.852 176.648 25.5181 -179.841 5.17239e-006 1.25267e-006 0.677058 -24.1894 72.1011 23.9179 8.12522 25.2333 -3.48293 -178.467 11.9895 0.93823 4.54188e-006 -4.6773e-006 -0.933345 -1.21889 -23.9959 0.683806 3.39869e-006 -3.05989e-006 -0.493315 22.3942 74.4276 -26.4135 -8.12706 25.2332 3.48371 
49.7294 86.5667 9.61449 1.47089 -0.598469 1.78451 1.18818 -1.70445 1.05646 2.39704 0.614034 1.99412 2.37442 2.25787 1.95482 -15.9942 6.56422 -3.27747 13.343 8.81262 -7.14534 53.2766 -7.69321 -4.57612 101.504 19.1564 23.695 1.19325e-006 -2.23847e-006 -3.28202e-006 12.479 4.56631 -1.01639 -5.97755e-006 -3.32188e-006 -3.00974 8.02888 -4.95146 0.697692 -72.3686 -6.88372 4.77081 -96.5378 24.0514 -28.3752 -3.68304e-006 -7.6833e-006 1.31604e-005 -12.3872 8.4492 0.591997 3.55972e-005 2.46331e-006 3.00715 -8.02887 -4.95142 -0.697685 177.983 15.9566 -1.53479 -180 -1.52557e-005 178.852 176.647 25.5175 -179.841 5.17239e-006 1.25267e-006 0.677446 -24.1845 72.0973 23.9129 8.12522 25.2333 -3.48293 -178.472 12.0013 0.941703 4.54188e-006 -4.6773e-006 -0.933294 -1.22203 -23.9924 0.682324 3.39869e-006 -3.05989e-006 -0.493315 22.3971 74.4269 -26.412 -8.12706 25.2332 3.48371 
49.735 86.567 9.61973 1.4735 -0.584108 1.78615 1.18824 -1.70462 1.05707 2.39716 0.6137 1.99541 2.37452 2.25753 1.95611 -16.0029 6.54885 -3.27832 13.3485 8.81655 -7.14674 53.2766 -7.68799 -4.57247 101.53 19.1883 23.6718 1.19325e-006 -2.23847e-006 -3.28202e-006 12.4857 4.54224 -1.0128 -5.97755e-006 -3.32188e-006 -3.00974 8.02888 -4.95146 0.697692 -72.3723 -6.88636 4.7722 -96.5488 24.0619 -28.3725 -3.68304e-006 -7.6833e-006 1.31604e-005 -12.3857 8.434 0.589584 3.55972e-005 2.46331e-006 3.00715 -8.02887 -4.95142 -0.697685 177.978 15.974 -1.53341 -180 -1.52557e-005 178.853 176.645 25.5166 -179.84 5.17239e-006 1.25267e-006 0.677676 -24.1807 72.0936 23.9081 8.12522 25.2333 -3.48293 -178.477 12.0128 0.945329 4.54188e-006 -4.6773e-006 -0.93326 -1.22502 -23.9887 0.680901 3.39869e-006 -3.05989e-006 -0.493315 22.3998 74.4261 -26.4105 -8.12706 25.2332 3.48371 
